<?xml version="1.0" encoding="utf-8"?>
<!-- Generator: Adobe Illustrator 22.0.1, SVG Export Plug-In . SVG Version: 6.00 Build 0)  -->
<svg version="1.1" id="Layer_1" xmlns="http://www.w3.org/2000/svg" xmlns:xlink="http://www.w3.org/1999/xlink" x="0px" y="0px"
	 viewBox="0 0 512 512" style="enable-background:new 0 0 512 512;" xml:space="preserve">
<style type="text/css">
	.st0{fill:#4D4D4D;}
	.st1{fill:#333333;}
	.st2{fill:#FFFFFF;}
	.st3{fill:#88C0D0;}
</style>
<ellipse class="st0" cx="259" cy="256.6" rx="234" ry="229.4"/>
<circle class="st1" cx="251" cy="245" r="206"/>
<g>
	<path class="st2" d="M28.2,376.6c3-28.3,5.2-51.5,6.5-69.4c2.5-32.7,4.4-65.1,5.7-97.4c1.3-32.3,1.9-58.6,1.9-79.2
		c16.3,0.2,30.8,0.4,43.4,0.4c8.5,0,20.8-0.1,36.7-0.4l-4.3,65.2l-5.4,102l-0.7,25c20.7,0.4,34.1,0.5,40.4,0.5
		c31.6,0,55.5-0.4,71.7-1.3l-4,54.4c-31.6-0.2-61.7-0.4-90.3-0.4C91.1,376.3,57.3,376.4,28.2,376.6z"/>
	<path class="st3" d="M246.9,376.6c2.5-26.4,4.2-47.2,5-62.3c1.2-20.7,2.4-49,3.5-85c1.1-36,1.7-61.4,1.7-76.2
		c0-5.3-0.1-12.7-0.2-22.3c16,0.4,28.7,0.5,38,0.5c13.1,0,28.3-0.3,45.8-0.8c17.4-0.5,32.4-0.8,44.9-0.8c15,0,25.7,0.4,32.1,1.3
		c8.4,1.1,15.8,3,22.1,5.8c6.3,2.8,11.6,6.2,15.8,10.3c4.7,4.8,8.3,10.6,11,17.3c3,7.7,4.5,15.9,4.5,24.7c0,6.8-0.9,13.4-2.6,19.6
		c-1.7,6.2-4.2,11.8-7.4,16.7c-3.2,4.9-6.8,8.9-10.7,12.2c-4,3.2-7.8,5.8-11.6,7.6c-3.8,1.8-8.9,3.6-15.2,5.4
		c6.4,1.1,11.5,2.3,15.3,3.7c3.8,1.4,8,3.6,12.3,6.7c4.4,3.1,8.3,7,11.8,11.8c3.5,4.8,6.1,10.2,7.8,16.1c1.7,5.9,2.6,12.2,2.6,18.8
		c0,9.1-1.5,17.7-4.5,25.8c-3,8-7.2,15-12.6,20.7c-4.6,4.9-10.5,9.1-17.8,12.6c-7.3,3.5-14.8,5.9-22.5,7.2c-6.2,1-17.6,1.7-34.1,2.2
		c-16.5,0.5-34,0.7-52.5,0.7l-47.4-0.2L246.9,376.6z M323.1,327.3h34.6c9.1,0,15.9-0.5,20.2-1.6c5.3-1.3,9.3-3.1,12.1-5.2
		c2.8-2.2,5-5.1,6.6-8.8c1.6-3.7,2.4-7.9,2.4-12.4c0-4-0.7-7.4-2-10.5c-1.3-3-3.3-5.5-5.9-7.6c-2.6-2-5.9-3.5-9.7-4.4
		c-3.8-0.9-9.9-1.4-18-1.4h-38L323.1,327.3z M327.2,226.6h25.6c8.4,0,14.4-0.2,18-0.6c3.5-0.4,7-1.2,10.4-2.3s6.3-2.9,8.8-5.4
		s4.2-5.3,5.2-8.5c1-3.1,1.5-6.2,1.5-9.4c0-4.4-1.1-8.4-3.2-11.9c-2.1-3.5-5.5-6.1-10.2-7.7c-4.7-1.7-11.8-2.5-21.4-2.5h-32.4
		L327.2,226.6z"/>
</g>
</svg>
