<?xml version="1.0" encoding="utf-8"?>
<!-- Generator: Adobe Illustrator 22.0.1, SVG Export Plug-In . SVG Version: 6.00 Build 0)  -->
<svg version="1.1" id="Layer_1" xmlns="http://www.w3.org/2000/svg" xmlns:xlink="http://www.w3.org/1999/xlink" x="0px" y="0px"
	 viewBox="0 0 512 512" style="enable-background:new 0 0 512 512;" xml:space="preserve">
<style type="text/css">
	.st0{fill:#FFFFFF;}
</style>
<title>Asset 2-svg</title>
<g id="Layer_2_1_">
	<g id="Layer_1-2">
		<path class="st0" d="M256,39c119.9,0,217,97.2,217,217.1c0,87.2-52.2,165.9-132.6,199.9C230,502.6,102.6,450.9,56,340.5
			S61.1,102.6,171.6,56C198.3,44.7,227,38.9,256,39 M256,0C114.6,0,0,114.6,0,256s114.6,256,256,256s256-114.6,256-256
			S397.4,0,256,0z"/>
		<path class="st0" d="M92.9,221.4c-2.3-10.6-3-21.5-2.1-32.4c0.9-11.2,1.4-22,1.4-32.4c-0.1-10.7-0.9-21.5-2.4-32.1
			c-1.6-11.3-3-22.2-4.1-32.7c-1.1-9.5-1.6-19.2-1.4-28.8c0.2-8.7,1.7-15.5,4.5-20.4c3.5-5.4,8.2-9.9,13.7-13.1
			c5.5-3.2,10.8-6.8,15.8-10.9c5.5,0.6,11,2.1,16.1,4.2c4.5,1.9,8.7,4.5,12.3,7.8c3.1,2.7,5.7,6.1,7.5,9.8c1.6,3.1,1.9,6.7,1,10
			c10.9,5.2,20.5,13,27.8,22.7c7.1,9.5,12.6,20.1,16.4,31.3c4,11.7,6.7,23.8,8.2,36c1.6,12.7,3,25.1,4.1,37.4
			c1.1,12.3,2.3,23.9,3.4,34.9c0.9,9.8,3.1,19.5,6.5,28.8c20.1-23.8,37.1-44.9,51.1-63.4s28-36.1,42.2-53
			c14.1-16.9,30-34.1,47.6-51.6s40.1-37.2,67.5-59.2c4.7,0.5,9.2,1.4,13.7,2.8l9.6,3.4c3.3,1.1,6.8,2,10.3,2.5
			c3.7,0.6,8.7,0.5,15.1-0.3c2.3,4.5,4,7.7,5.1,9.8s2.2,4,3.1,5.8c0.9,1.9,2,4.3,3.4,7.3s3.4,7.5,6.2,13.4c1.4,1.6,2,3.7,1.7,5.9
			c-0.2,2.2-0.5,4.3-1,6.4c-0.4,1.4-0.6,3-0.3,4.5c0.2,1.1,1.7,1.1,4.5,0c-1.8,6.2-4.8,12-8.9,17c-4.2,5.1-6.1,11.6-5.5,18.2
			c-12.3,13.4-26.1,27.2-41.1,41.3s-30.2,28.9-45.2,44.4c-15.1,15.4-29.6,31.4-43.5,48c-13.7,16.2-25.5,33.9-35.3,52.8
			c-2.7,0-4.8,0.6-6.2,1.7c-1.4,1.2-2.7,2.5-3.8,3.9l-3.4,4.5c-1.1,1.5-3.1,2.2-5.8,2.2c-0.9,11.9-6.3,23.2-16.1,33.8
			c-9.1,9.9-19.1,19-29.8,27.1c0.8,2.3,1.3,4.8,1.4,7.3c0,1.9-0.2,3.8-0.7,5.6c-0.5,1.9-0.8,3.9-1,5.9c-0.2,2.5-0.1,5.1,0.4,7.5
			c-3.8,8.5-9.3,16.1-16.1,22.3c-6.3,5.8-13.6,10.3-21.6,13.4c-7.6,3-15.8,4.2-24,3.6c-8.2-0.6-16.2-2.9-23.3-7
			c-3.1-1.4-6-3.5-8.2-6.1c-2.3-2.6-4.7-5.1-7.2-7.5c-2.5-2.4-5-4.7-7.5-6.7c-2.7-2.1-5.9-3.6-9.3-4.2c0.9-3.8,1-7.8,0.3-11.7
			c-0.6-3.8-1.6-7.6-3.1-11.2c-1.2-3-2.8-5.8-4.8-8.4c-1.8-2.2-3.7-3.4-5.5-3.4c-1.8-9.3-4.2-19.5-7.2-30.4c-3-11-5.9-21.8-8.9-32.6
			c-3-10.8-5.4-21.4-7.2-31.8c-1.8-9.6-2.5-19.3-2.1-29c0.5-4.2-0.6-8.5-3.1-12C95.4,230.2,93.7,225.9,92.9,221.4z"/>
	</g>
</g>
</svg>
